<?xml version="1.0" encoding="UTF-8" standalone="no"?>
<!-- Uploaded to: SVG Repo, www.svgrepo.com, Generator: SVG Repo Mixer Tools -->

<svg
   fill="#000000"
   height="800px"
   width="800px"
   version="1.1"
   id="Icons"
   viewBox="0 0 32 32"
   xml:space="preserve"
   sodipodi:docname="edit.svg"
   inkscape:version="1.4 (e7c3feb, 2024-10-09)"
   xmlns:inkscape="http://www.inkscape.org/namespaces/inkscape"
   xmlns:sodipodi="http://sodipodi.sourceforge.net/DTD/sodipodi-0.dtd"
   xmlns="http://www.w3.org/2000/svg"
   xmlns:svg="http://www.w3.org/2000/svg"><defs
   id="defs2" /><sodipodi:namedview
   id="namedview2"
   pagecolor="#ffffff"
   bordercolor="#000000"
   borderopacity="0.25"
   inkscape:showpageshadow="2"
   inkscape:pageopacity="0.0"
   inkscape:pagecheckerboard="0"
   inkscape:deskcolor="#d1d1d1"
   inkscape:zoom="1.0125"
   inkscape:cx="400"
   inkscape:cy="400"
   inkscape:window-width="1920"
   inkscape:window-height="1012"
   inkscape:window-x="0"
   inkscape:window-y="0"
   inkscape:window-maximized="1"
   inkscape:current-layer="Icons" />
<g
   id="g1"
   style="fill:#ffffff;fill-opacity:1">
	<path
   d="M17.8,18H15c-0.6,0-1-0.4-1-1v-2.8c0-0.3,0.1-0.5,0.3-0.7L24.9,2.9c0.2-0.2,0.4-0.3,0.7-0.3l0,0c0.3,0,0.5,0.1,0.7,0.3   l2.8,2.8c0.4,0.4,0.4,1,0,1.4L18.5,17.7C18.3,17.9,18.1,18,17.8,18z"
   id="path1"
   style="fill:#ffffff;fill-opacity:1" />
</g>
<path
   d="M19.9,19.1c-0.6,0.6-1.3,0.9-2.1,0.9H15c-1.7,0-3-1.3-3-3v-2.8c0-0.8,0.3-1.6,0.9-2.1L18.9,6H9C7.3,6,6,7.3,6,9v14  c0,1.7,1.3,3,3,3h14c1.7,0,3-1.3,3-3v-9.9L19.9,19.1z"
   id="path2"
   style="fill:#ffffff;fill-opacity:1" />
</svg>
