<?xml version="1.0" encoding="UTF-8" standalone="no"?>
<!-- Uploaded to: SVG Repo, www.svgrepo.com, Generator: SVG Repo Mixer Tools -->

<svg
   width="800px"
   height="800px"
   viewBox="0 0 24 24"
   fill="none"
   version="1.1"
   id="svg1"
   sodipodi:docname="xmark.svg"
   inkscape:version="1.4 (e7c3feb, 2024-10-09)"
   xmlns:inkscape="http://www.inkscape.org/namespaces/inkscape"
   xmlns:sodipodi="http://sodipodi.sourceforge.net/DTD/sodipodi-0.dtd"
   xmlns="http://www.w3.org/2000/svg"
   xmlns:svg="http://www.w3.org/2000/svg">
  <defs
     id="defs1" />
  <sodipodi:namedview
     id="namedview1"
     pagecolor="#ffffff"
     bordercolor="#000000"
     borderopacity="0.25"
     inkscape:showpageshadow="2"
     inkscape:pageopacity="0.0"
     inkscape:pagecheckerboard="0"
     inkscape:deskcolor="#d1d1d1"
     inkscape:zoom="1.0125"
     inkscape:cx="400"
     inkscape:cy="400"
     inkscape:window-width="1920"
     inkscape:window-height="1012"
     inkscape:window-x="0"
     inkscape:window-y="0"
     inkscape:window-maximized="1"
     inkscape:current-layer="svg1" />
  <path
     d="M6.70718 4.5858C6.31666 4.19528 5.68349 4.19528 5.29297 4.5858L4.58586 5.29291C4.19534 5.68343 4.19534 6.3166 4.58586 6.70712L9.87877 12L4.5859 17.2929C4.19537 17.6834 4.19537 18.3166 4.5859 18.7071L5.293 19.4142C5.68353 19.8048 6.31669 19.8048 6.70722 19.4142L12.0001 14.1214L17.293 19.4142C17.6835 19.8048 18.3167 19.8048 18.7072 19.4142L19.4143 18.7071C19.8048 18.3166 19.8048 17.6834 19.4143 17.2929L14.1214 12L19.4143 6.70712C19.8048 6.3166 19.8048 5.68343 19.4143 5.29291L18.7072 4.5858C18.3167 4.19528 17.6835 4.19528 17.293 4.5858L12.0001 9.87871L6.70718 4.5858Z"
     fill="#000000"
     id="path1"
     style="fill:#ffffff;fill-opacity:1" />
</svg>
